<svg xmlns="http://www.w3.org/2000/svg" xmlns:xlink="http://www.w3.org/1999/xlink" fill="none" version="1.1" width="110" height="76" viewBox="0 0 110 76"><defs><linearGradient x1="107.65957474708557" y1="63.5" x2="0" y2="36" gradientUnits="userSpaceOnUse" id="master_svg0_30_6442"><stop offset="0%" stop-color="#789AEC" stop-opacity="1"/><stop offset="99.99992251396179%" stop-color="#86CFEC" stop-opacity="1"/></linearGradient></defs><g style="mix-blend-mode:passthrough"><g style="mix-blend-mode:passthrough"><path d="M22.2031,41.5938L17.9688,54.0625Q17.6562,55.1562,17.6562,55.6719Q17.6562,56.5625,18.4844,56.9062Q19.3125,57.2656,21.4219,57.2656L23.5469,57.2656Q24.0469,57.2656,24.2969,57.5156Q24.5625,57.7812,24.5625,58.1562Q24.5625,58.5469,24.2656,58.8281Q23.9844,59.125,23.5469,59.125L9.45312,59.125Q9.01562,59.125,8.75,58.8281Q8.5,58.5469,8.5,58.1562Q8.5,57.7812,8.75,57.5156Q9.01562,57.2656,9.45312,57.2656L11.25,57.2656Q12.8594,57.2656,13.8438,56.5Q14.8438,55.7344,15.4688,53.9375L29.875,12.46875Q30.125,11.89062,30.5781,11.54688Q31.0312,11.1875,31.6094,11.1875Q32.625,11.1875,33.2031,12.21875L48.8906,53.8125Q50.1562,57.2656,52.9219,57.2656L54,57.2656Q54.5156,57.2656,54.7656,57.5156Q55.0312,57.7812,55.0312,58.1562Q55.0312,58.5469,54.7344,58.8281Q54.4531,59.125,54,59.125L38.8438,59.125Q38.3906,59.125,38.125,58.8281Q37.875,58.5469,37.875,58.1562Q37.875,57.7812,38.125,57.5156Q38.3906,57.2656,38.8438,57.2656L40.0469,57.2656Q41.9688,57.2656,42.7031,56.9375Q43.4375,56.625,43.4375,55.7344Q43.4375,55.1562,43,53.4844L38.5156,41.5938L22.2031,41.5938ZM37.8125,39.7344L30,18.9375L22.9688,39.7344L37.8125,39.7344ZM76.2969,25.9688Q78.7969,25.9688,80.1719,27.1875Q81.5469,28.4062,81.5469,29.9375Q81.5469,31.0312,80.8438,31.7344Q80.1406,32.4375,78.8594,32.4375Q77.6406,32.4375,76.75,31.1562L75.9844,30Q75.2812,29.2969,74.4375,29.2969Q73.0312,29.2969,71.1406,30.8438Q69.2656,32.375,67.8906,34.7188Q66.5156,37.0469,66.5156,39.2188L66.5156,54.3281Q66.5156,56.3125,67.1094,56.9219Q67.7188,57.5312,69.6406,57.5312L72.2656,57.5312Q73.2969,57.5312,73.2969,58.2969Q73.2969,59.125,72.2656,59.125L57.2969,59.125Q56.1406,59.125,56.1406,58.2969Q56.1406,57.5312,57.2969,57.5312L58.4375,57.5312Q60.625,57.5312,61.2656,56.8125Q61.9062,56.1094,61.9062,53.9375L61.9062,35.7656Q61.9062,31.7969,61.2031,31.0938Q60.4219,30.3281,58.7031,30.3281L57.4219,30.3281Q56.8438,30.3281,56.5156,30.0469Q56.2031,29.75,56.2031,29.3594Q56.2031,28.9219,56.5469,28.6094Q56.9062,28.2812,57.5469,28.2812L58.7031,28.2812Q58.9531,28.2812,60.1719,28.0156L63.1875,27.4375Q63.8125,27.3125,64.4531,26.9062Q65.0938,26.4844,65.2344,26.4219L66.5156,25.5312L66.5156,34.0312Q68.3594,31.1562,69.5156,29.625Q70.6719,28.0781,72.3594,27.0312Q74.0625,25.9688,76.2969,25.9688ZM90.8125,11.125Q92.4219,11.125,93.6719,12.28125Q94.9219,13.42188,94.9219,15.40625Q94.9219,17.01562,93.9219,17.875Q92.9375,18.7344,91.5312,18.7344Q89.7969,18.7344,88.4844,17.65625Q87.1719,16.5625,87.3594,14.76562Q87.3594,13.04688,88.375,12.09375Q89.4062,11.125,90.8125,11.125ZM97.5469,57.1406L100.156,57.1406Q100.734,57.1406,100.984,57.4219Q101.25,57.7188,101.25,58.0938Q101.25,58.4844,100.984,58.7969Q100.734,59.125,100.297,59.125L84.1562,59.125L83.9062,59.125Q83.1406,59.125,83.1406,58.2344Q83.1406,57.1406,84.2969,57.1406L85.6406,57.1406Q87.2969,57.1406,88.0625,56.9062Q88.8438,56.6875,89.1562,55.9844Q89.4688,55.2812,89.4688,53.8125L89.4688,33.2031Q89.4688,31.7344,88.5156,30.9688Q87.5625,30.2031,85.7656,30.2031L84.7344,30.2031Q84.2344,30.2031,83.9375,29.9531Q83.6562,29.6875,83.6562,29.2969Q83.6562,28.9219,83.9062,28.7031Q84.1562,28.4688,84.6094,28.4688L85.7656,28.4688Q86.8594,28.4688,88.8281,27.7969Q90.8125,27.125,92.3594,26.4219L94.2812,25.4531L94.2812,53.9375Q94.2812,54.3281,94.2812,55.5469Q94.2812,56.75,94.9844,56.9375Q95.6875,57.1406,97.5469,57.1406Z" fill="url(#master_svg0_30_6442)" fill-opacity="1"/></g></g></svg>